<svg width="98" height="98" viewBox="0 0 98 98" fill="none" xmlns="http://www.w3.org/2000/svg">
<g clip-path="url(#clip0_11_271)">
<path d="M31.3518 6.46393C28.8392 6.46551 26.3716 7.13101 24.1989 8.39304C22.0262 9.65507 20.2256 11.4688 18.9793 13.6506L1.08207 44.9044C0.419924 46.0716 0.0502913 47.3818 0.00478089 48.7229C-0.0407295 50.064 0.239237 51.3962 0.820741 52.6056L19.1386 84.3903C20.3898 86.5649 22.1925 88.3711 24.3648 89.6264C26.5371 90.8818 29.0021 91.5419 31.5111 91.5402L66.6359 91.4994C69.1451 91.4941 71.6086 90.8273 73.7779 89.5663C75.9472 88.3052 77.7457 86.4946 78.9921 84.3168L96.9179 53.0588C97.6296 51.8094 98.0031 50.396 98.0017 48.9581C98.0003 47.5202 97.6239 46.1075 96.9097 44.8595L78.9676 13.6383C77.7193 11.4614 75.9189 9.65212 73.7481 8.3932C71.5772 7.13428 69.1127 6.47022 66.6032 6.46801L31.3518 6.46393ZM49.1756 11.5436V37.1992C49.1756 38.5058 50.0984 39.6288 51.3806 39.8778L76.244 44.7248C68.0569 58.8776 59.8862 73.0386 51.7113 87.1914C51.0172 88.4001 49.1797 87.9101 49.1797 86.5136V60.8458C49.1812 60.2137 48.9628 59.6008 48.562 59.1121C48.1612 58.6234 47.6029 58.2893 46.9828 58.1671L22.1888 53.2957L46.6398 10.8576C47.3258 9.67343 49.1756 10.1308 49.1756 11.5436Z" fill="#1BB2A9"/>
</g>
<defs>
<clipPath id="clip0_11_271">
<rect width="98" height="98" fill="white"/>
</clipPath>
</defs>
</svg>
