<svg width="96" height="96" viewBox="0 0 96 96" fill="none" xmlns="http://www.w3.org/2000/svg">
<path d="M77.8198 33.476C75.6678 30.484 70.7078 24.336 63.0958 15.2C59.7918 11.236 56.9558 7.872 55.5598 6.22C54.9111 5.45032 54.2605 4.68232 53.6078 3.916L52.7798 2.936L52.3278 2.404L52.2398 2.276L52.1998 2.256L50.2798 0L47.8438 1.952C41.6238 6.936 36.5318 13.356 33.1198 20.512C31.0278 24.768 29.6638 28.932 28.9478 33.216C28.7598 34.18 28.5958 35.172 28.4638 36.168C27.6278 36.1 26.7798 36.056 25.9358 36.036C25.8638 36.032 25.7958 36.028 25.6998 36.024C22.6215 35.9164 19.545 36.2862 16.5798 37.12L15.3118 37.476L14.6598 38.62C11.5998 43.988 9.8678 50.096 9.6518 56.284C9.3718 64.324 11.5598 72.1 15.9838 78.784C20.3118 85.316 26.4238 90.312 33.6638 93.228L34.6078 93.608L34.8918 93.708L34.9038 93.704C38.6819 95.0728 42.6517 95.8395 46.6678 95.976C47.1238 95.992 47.5798 96 48.0358 96C53.1278 96 58.0878 95.004 62.7958 93.032L62.8278 93.048L64.0798 92.468C70.4302 89.5305 75.8605 84.9188 79.7878 79.128C83.8278 73.168 86.0958 66.192 86.3518 58.96C86.6518 50.316 83.7798 41.744 77.8198 33.476ZM49.4878 60.256C50.7998 65.232 50.5438 70.016 48.7238 74.488C44.1838 70.008 40.8558 65.08 38.8238 59.828C36.6518 54.212 35.3438 48.868 34.9278 43.928C36.8478 44.556 38.6158 45.392 40.1878 46.416C44.7158 49.364 47.8438 54.02 49.4878 60.256ZM50.3158 84.344C52.2438 85.816 54.2758 87.192 56.3678 88.456C53.2838 89.296 50.1078 89.664 46.8918 89.548C46.3938 89.5303 45.8964 89.5009 45.3998 89.46C47.2318 87.884 48.8758 86.168 50.3118 84.344H50.3158ZM55.7038 58.62C53.6398 50.792 49.5958 44.872 43.6958 41.028C41.1078 39.344 38.1558 38.064 34.9198 37.228C34.9638 36.692 35.0238 36.156 35.0918 35.628C35.1478 35.176 35.2118 34.764 35.2758 34.376C35.8078 31.62 36.6038 28.896 37.6318 26.276C38.0278 25.276 38.4558 24.28 38.9158 23.316L38.9318 23.284C39.6398 21.852 40.4358 20.408 41.3718 18.864L41.7398 18.256L41.7278 18.252C43.9038 14.848 46.5158 11.744 49.4958 9.008L50.6478 10.372C53.3358 13.556 55.8638 16.564 58.1598 19.32C63.3238 25.516 70.0238 33.652 72.6078 37.24C77.7158 44.324 80.1798 51.556 79.9278 58.74C79.7318 64.32 78.0838 69.76 75.1478 74.472C72.3718 78.936 68.5038 82.672 63.9478 85.304C61.4038 84.032 57.7118 81.948 53.7918 78.908C56.9518 72.608 57.5998 65.788 55.7078 58.62H55.7038ZM45.4038 80.208C42.5038 83.964 39.0558 86.408 37.0438 87.632C36.7198 87.516 36.3918 87.392 36.0718 87.26L35.8118 87.156C29.8518 84.692 24.8238 80.532 21.2718 75.116C17.6438 69.58 15.8478 63.144 16.0798 56.504C16.2438 51.744 17.4318 47.196 19.6078 42.988C20.8718 42.708 22.1598 42.532 23.4478 42.464L23.7838 42.456C24.4318 42.444 25.0798 42.444 25.6958 42.456C26.6038 42.5 27.5118 42.596 28.4038 42.736C28.6958 48.788 30.1838 55.316 32.8238 62.144C35.3718 68.72 39.5998 74.792 45.3998 80.204L45.4038 80.208Z" fill="#DD2C00"/>
</svg>
