<svg width="108" height="108" viewBox="0 0 108 108" fill="none" xmlns="http://www.w3.org/2000/svg">
<g clip-path="url(#clip0_11_262)">
<path d="M105.957 49.1854L58.8015 2.03439C56.0835 -0.679107 51.6825 -0.679107 48.9555 2.03439L39.186 11.8219L51.606 24.2419C54.5085 23.2744 57.8115 23.9269 60.1065 26.2264C62.4285 28.5439 63.0675 31.8874 62.0775 34.7764L74.0385 46.7464C76.941 45.7429 80.28 46.3954 82.5885 48.7039C85.833 51.9439 85.833 57.1819 82.5885 60.4219C79.353 63.6574 74.124 63.6574 70.8885 60.4219C68.463 57.9874 67.8555 54.4054 69.0705 51.4399L57.87 40.2979V69.6604C58.662 70.0474 59.409 70.5739 60.066 71.2264C63.2745 74.4709 63.2745 79.6999 60.066 82.9264C56.8305 86.1709 51.5655 86.1709 48.3255 82.9264C45.09 79.6909 45.09 74.4709 48.3255 71.2354C49.1445 70.4254 50.067 69.8134 51.048 69.4084V39.7579C50.0715 39.3484 49.14 38.7589 48.348 37.9534C45.8955 35.5009 45.306 31.9144 46.566 28.9129L34.362 16.6504L2.025 48.9649C-0.675 51.6874 -0.675 56.0929 2.025 58.8154L49.185 105.962C51.903 108.68 56.304 108.68 59.022 105.962L105.957 59.0269C108.679 56.3134 108.679 51.9079 105.957 49.1854Z" fill="#F05032"/>
</g>
<defs>
<clipPath id="clip0_11_262">
<rect width="108" height="108" fill="white"/>
</clipPath>
</defs>
</svg>
