<svg width="108" height="108" viewBox="0 0 108 108" fill="none" xmlns="http://www.w3.org/2000/svg">
<path d="M64.035 54.018C64.035 56.6858 62.9755 59.2445 61.0895 61.1313C59.2035 63.0182 56.6453 64.0788 53.9775 64.08C51.3089 64.08 48.7496 63.0199 46.8626 61.1329C44.9756 59.2459 43.9155 56.6866 43.9155 54.018C43.9155 51.3502 44.975 48.7915 46.861 46.9047C48.747 45.0178 51.3052 43.9572 53.973 43.956C56.6416 43.956 59.2009 45.0161 61.0879 46.9031C62.9749 48.7901 64.035 51.3494 64.035 54.018ZM75.951 5.91299C69.894 5.91299 61.9695 10.233 53.955 17.712C45.945 10.2735 38.016 6.00299 31.9635 6.00299C30.1185 6.00299 28.44 6.42149 26.9865 7.25399C20.799 10.8225 19.413 21.942 22.608 35.8965C8.91 40.1265 0 46.89 0 54.018C0 61.173 8.955 67.9545 22.6935 72.153C19.5255 86.1615 20.9385 97.299 27.1395 100.863C28.5795 101.704 30.2445 102.1 32.0985 102.1C38.151 102.1 46.08 97.7805 54.0945 90.2925C62.1045 97.7355 70.0335 102.006 76.086 102.006C77.931 102.006 79.6095 101.601 81.063 100.768C87.246 97.2045 88.6365 86.085 85.4415 72.126C99.09 67.932 108 61.155 108 54.018C108 46.863 99.045 40.0815 85.3065 35.874C88.4745 21.879 87.0615 10.7325 80.8605 7.16399C79.4295 6.33599 77.769 5.91749 75.951 5.91299ZM75.9285 10.818V10.845C76.941 10.845 77.7555 11.043 78.4395 11.4165C81.4365 13.1355 82.737 19.674 81.7245 28.0845C81.4815 30.1545 81.0855 32.337 80.5995 34.5645C76.2795 33.5025 71.5725 32.688 66.618 32.1615C63.648 28.089 60.5655 24.39 57.4605 21.15C64.6245 14.49 71.352 10.836 75.933 10.8225L75.9285 10.818ZM31.9635 10.908C36.5175 10.908 43.2765 14.544 50.4585 21.168C47.3715 24.408 44.2935 28.0845 41.3685 32.157C36.387 32.6835 31.6755 33.498 27.36 34.578C26.856 32.373 26.4825 30.24 26.217 28.188C25.182 19.782 26.46 13.248 29.43 11.5065C30.285 11.1015 31.23 10.9305 31.9635 10.908ZM53.9325 24.633C55.98 26.739 58.0275 29.097 60.0525 31.671C58.0725 31.581 56.0475 31.518 54 31.518C51.93 31.518 49.8825 31.563 47.88 31.671C49.86 29.097 51.9075 26.7435 53.9325 24.633ZM54 36.45C57.33 36.45 60.6465 36.603 63.909 36.8685C65.736 39.4875 67.518 42.282 69.2325 45.2385C70.9065 48.1185 72.4275 51.0435 73.8135 53.9955C72.4275 56.943 70.9065 59.8905 69.255 62.7705C67.545 65.7405 65.7765 68.5665 63.945 71.1855C60.669 71.469 57.348 71.6265 54 71.6265C50.67 71.6265 47.3535 71.469 44.091 71.208C42.264 68.589 40.482 65.79 38.7675 62.838C37.0935 59.958 35.5725 57.033 34.1865 54.081C35.55 51.1245 37.0935 48.1725 38.745 45.288C40.455 42.318 42.2235 39.501 44.055 36.882C47.331 36.594 50.652 36.441 54 36.441V36.45ZM37.6425 37.593C36.5625 39.2895 35.4825 41.0265 34.4745 42.813C33.462 44.568 32.517 46.332 31.617 48.096C30.4245 45.144 29.412 42.201 28.575 39.3345C31.455 38.6595 34.4925 38.0565 37.6425 37.593ZM70.3125 37.593C73.44 38.0565 76.455 38.628 79.3395 39.3345C78.5295 42.1785 77.517 45.1035 76.3695 48.033C75.4695 46.278 74.5245 44.5095 73.4895 42.75C72.477 40.986 71.397 39.267 70.317 37.593H70.3125ZM84.096 40.6305C86.274 41.3055 88.344 42.057 90.2835 42.8715C98.0775 46.2015 103.118 50.5575 103.118 54.0135C103.095 57.4695 98.055 61.8435 90.261 65.151C88.371 65.961 86.301 66.69 84.1635 67.3695C82.9035 63.0585 81.2565 58.5675 79.2135 53.9595C81.2385 49.383 82.8585 44.9145 84.096 40.6215V40.6305ZM23.8185 40.6485C25.0695 44.9685 26.721 49.455 28.7685 54.0585C26.7435 58.635 25.1145 63.1035 23.8815 67.3965C21.7035 66.7215 19.6335 65.9655 17.7165 65.1465C9.9225 61.83 4.8825 57.4695 4.8825 54.0135C4.8825 50.5575 9.9225 46.1745 17.7165 42.8715C19.6065 42.0615 21.6765 41.3325 23.8185 40.6485ZM76.3695 59.9085C77.562 62.865 78.5745 65.8125 79.4115 68.6745C76.5315 69.381 73.4895 69.9795 70.3395 70.4295C71.4195 68.742 72.4995 67.0005 73.512 65.2185C74.5245 63.4635 75.465 61.6725 76.3695 59.9085ZM31.617 59.9985C32.517 61.7625 33.462 63.522 34.497 65.286C35.532 67.041 36.5895 68.76 37.6695 70.4295C34.542 69.9705 31.527 69.3945 28.6425 68.6925C29.4525 65.8575 30.4695 62.9235 31.6125 59.994L31.617 59.9985ZM80.64 73.44C81.144 75.6585 81.54 77.796 81.783 79.8435C82.818 88.2495 81.54 94.7835 78.57 96.5295C77.9085 96.9345 77.049 97.1055 76.0365 97.1055C71.4825 97.1055 64.7235 93.474 57.5415 86.8455C60.6285 83.6055 63.7065 79.9335 66.6315 75.8655C71.613 75.3345 76.3245 74.52 80.64 73.44ZM27.405 73.485C31.725 74.538 36.432 75.3525 41.3865 75.879C44.3565 79.9515 47.439 83.6505 50.544 86.886C43.3665 93.5595 36.63 97.2135 32.049 97.2135C31.059 97.191 30.222 96.9885 29.5605 96.6195C26.5635 94.9095 25.263 88.3665 26.2755 79.956C26.5185 77.886 26.919 75.708 27.405 73.485ZM47.925 76.365C49.905 76.455 51.93 76.518 53.9775 76.518C56.0475 76.518 58.095 76.473 60.0975 76.365C58.1175 78.939 56.07 81.2925 54.045 83.4075C51.9975 81.2925 49.95 78.939 47.925 76.365Z" fill="#61DAFB"/>
</svg>
