<svg width="108" height="108" viewBox="0 0 108 108" fill="none" xmlns="http://www.w3.org/2000/svg">
<g clip-path="url(#clip0_11_259)">
<path d="M54.0044 21.6C39.6044 21.6 30.6044 28.8 27.0044 43.2C32.4044 36 38.7044 33.3 45.9044 35.1C50.0129 36.126 52.9469 39.105 56.2004 42.408C61.4969 47.781 67.6214 54 81.0044 54C95.4044 54 104.404 46.8 108.004 32.4C102.604 39.6 96.3044 42.3 89.1044 40.5C84.9959 39.474 82.0619 36.495 78.8084 33.192C73.5164 27.819 67.3919 21.6 54.0044 21.6ZM27.0044 54C12.6044 54 3.60439 61.2 0.00439453 75.6C5.40439 68.4 11.7044 65.7 18.9044 67.5C23.0129 68.526 25.9469 71.505 29.2004 74.808C34.4969 80.181 40.6214 86.4 54.0044 86.4C68.4044 86.4 77.4044 79.2 81.0044 64.8C75.6044 72 69.3044 74.7 62.1044 72.9C57.9959 71.874 55.0619 68.895 51.8084 65.592C46.5164 60.219 40.3919 54 27.0044 54Z" fill="#06B6D4"/>
</g>
<defs>
<clipPath id="clip0_11_259">
<rect width="108" height="108" fill="white"/>
</clipPath>
</defs>
</svg>
