<svg width="102" height="102" viewBox="0 0 102 102" fill="none" xmlns="http://www.w3.org/2000/svg">
<path d="M4.78125 0C2.1335 0 0 2.1335 0 4.78125V97.2188C0 99.8665 2.1335 102 4.78125 102H97.2188C99.8665 102 102 99.8665 102 97.2188V4.78125C102 2.1335 99.8665 0 97.2188 0H4.78125ZM78.574 41.4375C81.175 41.4375 83.4785 41.5947 85.4887 41.9092C87.3848 42.1933 89.2454 42.6777 91.0392 43.3543V53.8008C90.1782 53.2052 89.2633 52.6916 88.3065 52.2665C87.3198 51.8225 86.3012 51.4532 85.2593 51.1615C83.2855 50.6115 81.2476 50.3257 79.1988 50.3115C77.9238 50.3115 76.7635 50.4305 75.718 50.677C74.7862 50.8763 73.8923 51.2235 73.0703 51.7055C72.3478 52.1475 71.7952 52.6787 71.4 53.295C71.0025 53.9161 70.7956 54.6401 70.805 55.3775C70.805 56.2105 71.0303 56.9627 71.468 57.6258C71.91 58.2887 72.539 58.9178 73.3508 59.5128C74.1625 60.1077 75.1485 60.6857 76.3087 61.2552C77.469 61.829 78.7822 62.4198 80.2443 63.0233C82.2418 63.8605 84.0352 64.753 85.6247 65.6922C87.2142 66.6357 88.5785 67.7025 89.7175 68.8925C90.8565 70.0782 91.7235 71.434 92.327 72.9597C92.9305 74.4855 93.2365 76.2578 93.2365 78.285C93.2365 81.0772 92.7053 83.4275 91.6513 85.323C90.6215 87.1925 89.1436 88.7769 87.3503 89.9342C85.4173 91.1599 83.2749 92.0186 81.0305 92.4672C78.625 92.9772 76.0877 93.2323 73.423 93.2323C70.8003 93.2438 68.1823 93.0104 65.603 92.5353C63.3714 92.1493 61.2072 91.4436 59.177 90.44V79.2625C63.0181 82.5313 67.8906 84.3376 72.9342 84.3625C74.3495 84.3625 75.5863 84.235 76.6403 83.98C77.6985 83.725 78.5782 83.368 79.288 82.9175C79.9935 82.4585 80.5205 81.923 80.8732 81.3025C81.2631 80.58 81.4405 79.762 81.3848 78.9429C81.3292 78.1239 81.0428 77.3373 80.5587 76.6743C79.9273 75.8387 79.155 75.1196 78.2765 74.5493C77.187 73.8271 76.0399 73.196 74.8467 72.6622C73.4325 72.0164 72.0057 71.3986 70.567 70.8092C66.6655 69.1815 63.7585 67.1882 61.8417 64.838C59.9292 62.4877 58.9688 59.6445 58.9688 56.3168C58.9688 53.7073 59.4915 51.4675 60.537 49.5933C61.5825 47.719 63.002 46.1763 64.804 44.965C66.71 43.7076 68.826 42.8022 71.0515 42.2918C73.5164 41.7106 76.0415 41.4238 78.574 41.4375ZM14.3438 42.2365H54.9865V51.442H40.4005V92.4375H28.8533V51.442H14.3438V42.2365Z" fill="#3178C6"/>
</svg>
