<svg width="100" height="100" viewBox="0 0 100 100" fill="none" xmlns="http://www.w3.org/2000/svg">
<g clip-path="url(#clip0_11_274)">
<path d="M34.5249 44.075L36.6583 8.00416C36.6752 7.72191 36.7856 7.45332 36.9719 7.24061C37.1582 7.02791 37.4099 6.88317 37.6874 6.82916L72.4041 0.0249951C72.6185 -0.0171104 72.8401 -0.0034076 73.0477 0.0647887C73.2553 0.132985 73.4419 0.253386 73.5896 0.414439C73.7372 0.575493 73.841 0.771793 73.891 0.984505C73.941 1.19722 73.9354 1.4192 73.8749 1.62916L67.3833 24.1417C67.323 24.3512 67.3176 24.5727 67.3673 24.785C67.4171 24.9973 67.5205 25.1933 67.6677 25.3542C67.8148 25.5151 68.0007 25.6356 68.2077 25.7042C68.4147 25.7728 68.6358 25.7871 68.8499 25.7458L78.7999 23.8292C79.034 23.7834 79.2763 23.8042 79.4992 23.8892C79.7221 23.9743 79.9166 24.1202 80.0607 24.3103C80.2048 24.5004 80.2927 24.7271 80.3144 24.9647C80.336 25.2022 80.2906 25.4411 80.1833 25.6542L51.8916 82.1125L51.3791 82.9042C51.2689 83.0834 51.1144 83.2312 50.9305 83.3334C50.7466 83.4355 50.5395 83.4886 50.3291 83.4875C49.5916 83.4875 48.8708 82.8542 49.0583 81.95L53.6208 59.8625C53.6656 59.6461 53.6534 59.4219 53.5854 59.2116C53.5174 59.0014 53.3959 58.8125 53.2329 58.6633C53.0699 58.5142 52.8709 58.41 52.6555 58.3609C52.4401 58.3118 52.2156 58.3195 52.0041 58.3833L46.0333 60.1958C45.8219 60.2602 45.5974 60.2686 45.3818 60.2201C45.1662 60.1716 44.9669 60.0679 44.8035 59.9192C44.64 59.7705 44.518 59.5818 44.4495 59.3717C44.3809 59.1616 44.3682 58.9373 44.4124 58.7208L47.2874 44.6583C47.331 44.4484 47.321 44.2308 47.2582 44.0258C47.1954 43.8207 47.0819 43.6348 46.9282 43.4853C46.7745 43.3358 46.5856 43.2274 46.3789 43.1703C46.1722 43.1131 45.9545 43.109 45.7458 43.1583L36.0791 45.3917C35.8862 45.436 35.6856 45.4348 35.4932 45.3881C35.3008 45.3415 35.1219 45.2507 34.9707 45.1229C34.8195 44.9952 34.7002 44.834 34.6221 44.6521C34.5439 44.4702 34.5093 44.2726 34.5208 44.075H34.5249ZM96.9249 11.05L72.0166 15.5833L69.7499 23.4458L78.4041 21.7792C79.0748 21.6455 79.7703 21.7213 80.3964 21.9963C81.0225 22.2714 81.5489 22.7323 81.9041 23.3167C82.2056 23.8026 82.377 24.358 82.4018 24.9294C82.4266 25.5007 82.304 26.0689 82.0458 26.5792L53.7499 83.0417L53.6958 83.1458L53.6333 83.2417L53.1249 84.0333C52.8245 84.504 52.4107 84.8918 51.9215 85.1612C51.4323 85.4305 50.8834 85.5728 50.3249 85.575C49.8192 85.5722 49.3203 85.458 48.8637 85.2405C48.4071 85.0231 48.0041 84.7076 47.6833 84.3167C47.3712 83.9304 47.1494 83.4793 47.0341 82.9963C46.9187 82.5133 46.9128 82.0106 47.0166 81.525L51.3041 60.7708L46.6374 62.1875C45.9991 62.3798 45.3181 62.3787 44.6804 62.1844C44.0427 61.9902 43.4768 61.6114 43.0541 61.0958C42.739 60.711 42.5137 60.2607 42.3948 59.7777C42.2758 59.2947 42.2662 58.7913 42.3666 58.3042L44.9916 45.4708L36.5458 47.4208C35.974 47.5518 35.378 47.5311 34.8167 47.3608C34.2554 47.1905 33.7484 46.8765 33.3458 46.45C33.0337 46.1162 32.7926 45.7225 32.6372 45.2928C32.4817 44.863 32.4152 44.4062 32.4416 43.95L34.0624 16.575L3.06244 11.0333C2.5848 10.9471 2.09249 10.999 1.64334 11.1829C1.19418 11.3668 0.806841 11.6751 0.526813 12.0715C0.246784 12.4679 0.0857021 12.936 0.0624892 13.4208C0.0392763 13.9056 0.154897 14.387 0.395769 14.8083L48.2499 98.7125C48.4735 99.1052 48.7974 99.4315 49.1884 99.6579C49.5795 99.8843 50.0237 100.003 50.4756 100.001C50.9275 99.9993 51.3708 99.8776 51.7602 99.6482C52.1496 99.4189 52.471 99.0902 52.6916 98.6958L99.6083 14.8C99.8434 14.3779 99.9538 13.8976 99.9266 13.4152C99.8994 12.9328 99.7356 12.468 99.4544 12.075C99.1732 11.6821 98.7862 11.3771 98.3383 11.1956C97.8905 11.0141 97.4004 10.9636 96.9249 11.05Z" fill="#646CFF"/>
</g>
<defs>
<clipPath id="clip0_11_274">
<rect width="100" height="100" fill="white"/>
</clipPath>
</defs>
</svg>
